# xmcd CD database file
# Copyright (C) 1993-1996 Ti Kan
#
# Track frame offsets:
# 150
# 11640
# 23070
# 32525
# 42422
# 53090
# 63882
# 73852
# 86362
# 95257
# 106177
# 117812
# 128480
# 140602
# 151645
# 162007
# 172230
# 182760
# 196440
# 210140
# 222245
# 231195
# 243170
# 255605
# 267740
# 279045
# 289872
# 301960
# 312700
#
# Disc length: 4340 seconds
#
# Revision: 0
# Processed by: cddbd v1.4b41PL1 Copyright (c) Steve Scherf et al.
# Submitted via: inCDius 1.1b5
#
DISCID=8d10f21d
DTITLE=George Hamilton 4th - To You And Yours, From Me And Mine Disc6
DYEAR=1900
DGENRE=
TTITLE0=A Nice Place To Visit(But I Sure Hate To Live There)
TTITLE1=You Don't Love Me Anymore
TTITLE2=The Late Mister Jones
TTITLE3=Writee Me A Picture
TTITLE4=Something Special To Me
TTITLE5=I've Got A Secret
TTITLE6=Slightly Used
TTITLE7=Under Your Soell Again
TTITLE8=Above And Beyond
TTITLE9=Excuse Me (I Think I've Got A Heartache)
TTITLE10=Wishful Thinking
TTITLE11=I Don't Believe I'll Fall In Love Tonight
TTITLE12=Foolin' Around
TTITLE13=Another Day, Another Dollar
TTITLE14=Keep Those Cards And Letters Coming In
TTITLE15=Under The Influence Of Love 
TTITLE16=Big, Big Love
TTITLE17=You Better Not Do That
TTITLE18=Long Black Limousine
TTITLE19=Together Again
TTITLE20=Abilene
TTITLE21=Three Steps To The Phone (Millions Of Miles)
TTITLE22=A Rose And A Baby Ruth
TTITLE23=Fort Worth, Dallas Or Houston
TTITLE24=Before This Day Ends
TTITLE25=Truck Driving Man
TTITLE26=Walking The Floor Over You
TTITLE27=Write Me A Picture
TTITLE28=If You Don't Know, I Ain't Gonna TellYou
EXTD=
EXTT0=
EXTT1=
EXTT2=
EXTT3=
EXTT4=
EXTT5=
EXTT6=
EXTT7=
EXTT8=
EXTT9=
EXTT10=
EXTT11=
EXTT12=
EXTT13=
EXTT14=
EXTT15=
EXTT16=
EXTT17=
EXTT18=
EXTT19=
EXTT20=
EXTT21=
EXTT22=
EXTT23=
EXTT24=
EXTT25=
EXTT26=
EXTT27=
EXTT28=
PLAYORDER=
